Metropolis-RegularItalic.ufo
<glyph name="parenleft" format="2">
	<advance width="353"/>
	<unicode hex="0028"/>
	<outline>
		<contour>
			<point x="178" y="-168" type="curve"/>
			<point x="178" y="-168" type="line"/>
			<point x="223" y="-129" type="line"/>
			<point x="158" y="-46"/>
			<point x="123" y="40"/>
			<point x="123" y="145" type="curve"/>
			<point x="123" y="350"/>
			<point x="225" y="518"/>
			<point x="389" y="656" type="curve"/>
			<point x="353" y="702" type="line"/>
			<point x="168" y="569"/>
			<point x="45" y="369"/>
			<point x="45" y="155" type="curve"/>
			<point x="45" y="29"/>
			<point x="92" y="-82"/>
		</contour>
	</outline>
</glyph>
<glyph name="parenright" format="2">
	<advance width="352"/>
	<unicode hex="0029"/>
	<outline>
		<contour>
			<point x="-33" y="-125" type="curve"/>
			<point x="2" y="-172" type="line"/>
			<point x="187" y="-39"/>
			<point x="310" y="162"/>
			<point x="310" y="376" type="curve"/>
			<point x="310" y="502"/>
			<point x="263" y="612"/>
			<point x="178" y="698" type="curve"/>
			<point x="133" y="660" type="line"/>
			<point x="197" y="576"/>
			<point x="232" y="491"/>
			<point x="232" y="385" type="curve"/>
			<point x="232" y="185"/>
			<point x="134" y="15"/>
		</contour>
	</outline>
</glyph>
<glyph name="asterisk" format="2">
	<advance width="397"/>
	<unicode hex="002A"/>
	<outline>
		<contour>
			<point x="223" y="376" type="curve"/>
			<point x="223" y="376" type="line"/>
			<point x="237" y="376"/>
			<point x="250" y="386"/>
			<point x="252" y="398" type="curve"/>
			<point x="261" y="440"/>
			<point x="259" y="481"/>
			<point x="262" y="523" type="curve"/>
			<point x="291" y="498"/>
			<point x="315" y="468"/>
			<point x="346" y="447" type="curve"/>
			<point x="355" y="441"/>
			<point x="371" y="446"/>
			<point x="381" y="458" type="curve"/>
			<point x="390" y="470"/>
			<point x="389" y="484"/>
			<point x="380" y="490" type="curve"/>
			<point x="349" y="511"/>
			<point x="310" y="522"/>
			<point x="275" y="539" type="curve"/>
			<point x="317" y="556"/>
			<point x="360" y="567"/>
			<point x="401" y="588" type="curve"/>
			<point x="412" y="594"/>
			<point x="419" y="608"/>
			<point x="414" y="620" type="curve"/>
			<point x="410" y="632"/>
			<point x="396" y="637"/>
			<point x="385" y="631" type="curve"/>
			<point x="344" y="610"/>
			<point x="308" y="580"/>
			<point x="269" y="555" type="curve"/>
			<point x="283" y="597"/>
			<point x="302" y="638"/>
			<point x="311" y="680" type="curve"/>
			<point x="313" y="692"/>
			<point x="304" y="702"/>
			<point x="290" y="702" type="curve"/>
			<point x="276" y="702"/>
			<point x="263" y="692"/>
			<point x="261" y="680" type="curve"/>
			<point x="252" y="638"/>
			<point x="255" y="597"/>
			<point x="251" y="555" type="curve"/>
			<point x="222" y="580"/>
			<point x="198" y="610"/>
			<point x="167" y="631" type="curve"/>
			<point x="158" y="637"/>
			<point x="142" y="632"/>
			<point x="132" y="620" type="curve"/>
			<point x="123" y="608"/>
			<point x="124" y="594"/>
			<point x="133" y="588" type="curve"/>
			<point x="164" y="567"/>
			<point x="203" y="556"/>
			<point x="239" y="539" type="curve"/>
			<point x="196" y="522"/>
			<point x="153" y="511"/>
			<point x="112" y="490" type="curve"/>
			<point x="101" y="484"/>
			<point x="94" y="470"/>
			<point x="99" y="458" type="curve"/>
			<point x="103" y="446"/>
			<point x="117" y="441"/>
			<point x="128" y="447" type="curve"/>
			<point x="169" y="468"/>
			<point x="205" y="498"/>
			<point x="244" y="523" type="curve"/>
			<point x="231" y="481"/>
			<point x="211" y="440"/>
			<point x="202" y="398" type="curve"/>
			<point x="200" y="386"/>
			<point x="209" y="376"/>
		</contour>
	</outline>
</glyph>
<glyph name="comma" format="2">
	<advance width="231"/>
	<unicode hex="002C"/>
	<outline>
		<contour>
			<point x="-18" y="-103" type="curve"/>
			<point x="17" y="-135" type="line"/>
			<point x="77" y="-75"/>
			<point x="125" y="-25"/>
			<point x="125" y="35" type="curve"/>
			<point x="125" y="71"/>
			<point x="107" y="96"/>
			<point x="73" y="96" type="curve"/>
			<point x="43" y="96"/>
			<point x="13" y="73"/>
			<point x="13" y="36" type="curve"/>
			<point x="13" y="9"/>
			<point x="32" y="-9"/>
			<point x="57" y="-9" type="curve"/>
			<point x="40" y="-40"/>
			<point x="16" y="-72"/>
		</contour>
	</outline>
</glyph>
<glyph name="period" format="2">
	<advance width="225"/>
	<unicode hex="002E"/>
	<outline>
		<contour>
			<point x="62" y="-12" type="curve"/>
			<point x="62" y="-12" type="line"/>
			<point x="93" y="-12"/>
			<point x="121" y="17"/>
			<point x="121" y="49" type="curve"/>
			<point x="121" y="75"/>
			<point x="102" y="96"/>
			<point x="74" y="96" type="curve"/>
			<point x="44" y="96"/>
			<point x="14" y="72"/>
			<point x="14" y="36" type="curve"/>
			<point x="14" y="9"/>
			<point x="33" y="-12"/>
		</contour>
	</outline>
</glyph>
<glyph name="two" format="2">
	<advance width="580"/>
	<unicode hex="0032"/>
	<outline>
		<contour>
			<point x="10" y="65" type="line"/>
			<point x="-2" y="0" type="line"/>
			<point x="471" y="0" type="line"/>
			<point x="487" y="74" type="line"/>
			<point x="139" y="74" type="line"/>
			<point x="353" y="228" type="line" smooth="yes"/>
			<point x="472" y="316"/>
			<point x="572" y="411"/>
			<point x="572" y="535" type="curve"/>
			<point x="572" y="636"/>
			<point x="492" y="699"/>
			<point x="385" y="699" type="curve"/>
			<point x="280" y="699"/>
			<point x="194" y="651"/>
			<point x="120" y="570" type="curve"/>
			<point x="169" y="520" type="line"/>
			<point x="228" y="584"/>
			<point x="296" y="629"/>
			<point x="379" y="629" type="curve"/>
			<point x="441" y="629"/>
			<point x="493" y="593"/>
			<point x="493" y="529" type="curve"/>
			<point x="493" y="438"/>
			<point x="402" y="352"/>
			<point x="305" y="281" type="curve"/>
		</contour>
	</outline>
</glyph>
<glyph name="four" format="2">
	<advance width="631"/>
	<unicode hex="0034"/>
	<outline>
		<contour>
			<point x="382" y="167" type="line"/>
			<point x="347" y="0" type="line"/>
			<point x="425" y="0" type="line"/>
			<point x="460" y="167" type="line"/>
			<point x="563" y="167" type="line"/>
			<point x="578" y="238" type="line"/>
			<point x="475" y="238" type="line"/>
			<point x="568" y="687" type="line"/>
			<point x="477" y="687" type="line"/>
			<point x="42" y="232" type="line"/>
			<point x="40" y="167" type="line"/>
		</contour>
		<contour>
			<point x="397" y="238" type="line"/>
			<point x="134" y="238" type="line"/>
			<point x="472" y="593" type="line"/>
		</contour>
	</outline>
</glyph>
<glyph name="five" format="2">
	<advance width="585"/>
	<unicode hex="0035"/>
	<outline>
		<contour>
			<point x="237" y="-12" type="curve"/>
			<point x="237" y="-12" type="line"/>
			<point x="396" y="-12"/>
			<point x="528" y="107"/>
			<point x="528" y="259" type="curve"/>
			<point x="528" y="366"/>
			<point x="446" y="428"/>
			<point x="335" y="428" type="curve"/>
			<point x="275" y="428"/>
			<point x="224" y="409"/>
			<point x="182" y="384" type="curve"/>
			<point x="239" y="613" type="line"/>
			<point x="569" y="613" type="line"/>
			<point x="584" y="687" type="line"/>
			<point x="178" y="687" type="line"/>
			<point x="95" y="334" type="line"/>
			<point x="148" y="304" type="line"/>
			<point x="198" y="336"/>
			<point x="254" y="359"/>
			<point x="316" y="359" type="curve"/>
			<point x="397" y="359"/>
			<point x="448" y="315"/>
			<point x="448" y="247" type="curve"/>
			<point x="448" y="147"/>
			<point x="354" y="58"/>
			<point x="244" y="58" type="curve"/>
			<point x="171" y="58"/>
			<point x="114" y="94"/>
			<point x="73" y="152" type="curve"/>
			<point x="14" y="99" type="line"/>
			<point x="58" y="35"/>
			<point x="129" y="-12"/>
		</contour>
	</outline>
</glyph>
<glyph name="eight" format="2">
	<advance width="609"/>
	<unicode hex="0038"/>
	<outline>
		<contour>
			<point x="253" y="-12" type="curve"/>
			<point x="253" y="-12" type="line"/>
			<point x="399" y="-12"/>
			<point x="541" y="74"/>
			<point x="541" y="206" type="curve"/>
			<point x="541" y="278"/>
			<point x="490" y="329"/>
			<point x="424" y="353" type="curve"/>
			<point x="520" y="386"/>
			<point x="595" y="450"/>
			<point x="595" y="544" type="curve"/>
			<point x="595" y="640"/>
			<point x="503" y="699"/>
			<point x="390" y="699" type="curve"/>
			<point x="262" y="699"/>
			<point x="123" y="619"/>
			<point x="123" y="490" type="curve"/>
			<point x="123" y="426"/>
			<point x="166" y="382"/>
			<point x="226" y="357" type="curve"/>
			<point x="120" y="325"/>
			<point x="34" y="252"/>
			<point x="34" y="149" type="curve"/>
			<point x="34" y="51"/>
			<point x="124" y="-12"/>
		</contour>
		<contour>
			<point x="257" y="59" type="curve"/>
			<point x="257" y="59" type="line"/>
			<point x="174" y="59"/>
			<point x="114" y="98"/>
			<point x="114" y="159" type="curve"/>
			<point x="114" y="248"/>
			<point x="232" y="316"/>
			<point x="322" y="318" type="curve"/>
			<point x="385" y="316"/>
			<point x="464" y="278"/>
			<point x="464" y="211" type="curve"/>
			<point x="464" y="123"/>
			<point x="360" y="59"/>
		</contour>
		<contour>
			<point x="325" y="386" type="curve"/>
			<point x="325" y="386" type="line"/>
			<point x="269" y="390"/>
			<point x="199" y="420"/>
			<point x="199" y="483" type="curve"/>
			<point x="199" y="564"/>
			<point x="292" y="628"/>
			<point x="387" y="628" type="curve"/>
			<point x="462" y="628"/>
			<point x="515" y="590"/>
			<point x="515" y="534" type="curve"/>
			<point x="515" y="450"/>
			<point x="411" y="391"/>
		</contour>
	</outline>
</glyph>
<glyph name="colon" format="2">
	<advance width="219"/>
	<unicode hex="003A"/>
	<outline>
		<contour>
			<point x="146" y="403" type="curve"/>
			<point x="146" y="403" type="line"/>
			<point x="176" y="403"/>
			<point x="204" y="432"/>
			<point x="204" y="464" type="curve"/>
			<point x="204" y="490"/>
			<point x="185" y="511"/>
			<point x="157" y="511" type="curve"/>
			<point x="127" y="511"/>
			<point x="97" y="487"/>
			<point x="97" y="451" type="curve"/>
			<point x="97" y="424"/>
			<point x="116" y="403"/>
		</contour>
		<contour>
			<point x="59" y="-12" type="curve"/>
			<point x="59" y="-12" type="line"/>
			<point x="90" y="-12"/>
			<point x="118" y="17"/>
			<point x="118" y="49" type="curve"/>
			<point x="118" y="75"/>
			<point x="99" y="96"/>
			<point x="71" y="96" type="curve"/>
			<point x="41" y="96"/>
			<point x="11" y="72"/>
			<point x="11" y="36" type="curve"/>
			<point x="11" y="9"/>
			<point x="30" y="-12"/>
		</contour>
	</outline>
</glyph>
<glyph name="semicolon" format="2">
	<advance width="225"/>
	<unicode hex="003B"/>
	<outline>
		<contour>
			<point x="146" y="403" type="curve"/>
			<point x="146" y="403" type="line"/>
			<point x="177" y="403"/>
			<point x="205" y="432"/>
			<point x="205" y="464" type="curve"/>
			<point x="205" y="490"/>
			<point x="186" y="511"/>
			<point x="158" y="511" type="curve"/>
			<point x="128" y="511"/>
			<point x="98" y="487"/>
			<point x="98" y="451" type="curve"/>
			<point x="98" y="424"/>
			<point x="117" y="403"/>
		</contour>
		<contour>
			<point x="-19" y="-103" type="curve"/>
			<point x="16" y="-135" type="line"/>
			<point x="76" y="-75"/>
			<point x="124" y="-25"/>
			<point x="124" y="35" type="curve"/>
			<point x="124" y="71"/>
			<point x="106" y="96"/>
			<point x="72" y="96" type="curve"/>
			<point x="42" y="96"/>
			<point x="12" y="73"/>
			<point x="12" y="36" type="curve"/>
			<point x="12" y="9"/>
			<point x="31" y="-9"/>
			<point x="56" y="-9" type="curve"/>
			<point x="39" y="-40"/>
			<point x="15" y="-72"/>
		</contour>
	</outline>
</glyph>
<glyph name="less" format="2">
	<advance width="583"/>
	<unicode hex="003C"/>
	<outline>
		<contour>
			<point x="72" y="314" type="line"/>
			<point x="480" y="88" type="line"/>
			<point x="494" y="159" type="line"/>
			<point x="152" y="344" type="line"/>
			<point x="572" y="529" type="line"/>
			<point x="586" y="599" type="line"/>
			<point x="84" y="373" type="line"/>
		</contour>
	</outline>
</glyph>
<glyph name="question" format="2">
	<advance width="534"/>
	<unicode hex="003F"/>
	<outline>
		<contour>
			<point x="227" y="380" type="curve"/>
			<point x="189" y="193" type="line"/>
			<point x="273" y="193" type="line"/>
			<point x="299" y="320" type="line"/>
			<point x="420" y="345"/>
			<point x="540" y="430"/>
			<point x="540" y="547" type="curve"/>
			<point x="540" y="634"/>
			<point x="473" y="699"/>
			<point x="359" y="699" type="curve"/>
			<point x="261" y="699"/>
			<point x="180" y="652"/>
			<point x="114" y="586" type="curve"/>
			<point x="158" y="531" type="line"/>
			<point x="212" y="585"/>
			<point x="274" y="628"/>
			<point x="352" y="628" type="curve"/>
			<point x="423" y="628"/>
			<point x="460" y="586"/>
			<point x="460" y="536" type="curve"/>
			<point x="460" y="447"/>
			<point x="339" y="389"/>
		</contour>
		<contour>
			<point x="200" y="-12" type="curve"/>
			<point x="200" y="-12" type="line"/>
			<point x="231" y="-12"/>
			<point x="259" y="17"/>
			<point x="259" y="49" type="curve"/>
			<point x="259" y="75"/>
			<point x="240" y="96"/>
			<point x="212" y="96" type="curve"/>
			<point x="182" y="96"/>
			<point x="152" y="72"/>
			<point x="152" y="36" type="curve"/>
			<point x="152" y="9"/>
			<point x="171" y="-12"/>
		</contour>
	</outline>
</glyph>
<glyph name="A" format="2">
	<advance width="785"/>
	<unicode hex="0041"/>
	<anchor x="482" y="687" name="top"/>
	<anchor x="684" y="0" name="bottom"/>
	<outline>
		<contour>
			<point x="162" y="230" type="line"/>
			<point x="147" y="156" type="line"/>
			<point x="576" y="156" type="line"/>
			<point x="591" y="230" type="line"/>
		</contour>
		<contour>
			<point x="80" y="0" type="line"/>
			<point x="525" y="687" type="line"/>
			<point x="439" y="687" type="line"/>
			<point x="-7" y="0" type="line"/>
		</contour>
		<contour>
			<point x="684" y="0" type="line"/>
			<point x="524" y="687" type="line"/>
			<point x="440" y="687" type="line"/>
			<point x="601" y="0" type="line"/>
		</contour>
	</outline>
</glyph>
<glyph name="E" format="2">
	<advance width="625"/>
	<unicode hex="0045"/>
	<anchor x="167" y="687" name="ae_upper"/>
	<anchor x="517" y="0" name="bottom"/>
	<anchor x="419" y="687" name="top"/>
	<outline>
		<contour>
			<point x="167" y="687" type="line"/>
			<point x="24" y="0" type="line"/>
			<point x="517" y="0" type="line"/>
			<point x="533" y="74" type="line"/>
			<point x="100" y="74" type="line"/>
			<point x="116" y="54" type="line"/>
			<point x="172" y="333" type="line"/>
			<point x="148" y="313" type="line"/>
			<point x="542" y="313" type="line"/>
			<point x="557" y="387" type="line"/>
			<point x="165" y="387" type="line"/>
			<point x="181" y="367" type="line"/>
			<point x="234" y="633" type="line"/>
			<point x="210" y="613" type="line"/>
			<point x="645" y="613" type="line"/>
			<point x="660" y="687" type="line"/>
		</contour>
	</outline>
</glyph>
<glyph name="F" format="2">
	<advance width="620"/>
	<unicode hex="0046"/>
	<outline>
		<contour>
			<point x="167" y="687" type="line"/>
			<point x="24" y="0" type="line"/>
			<point x="103" y="0" type="line"/>
			<point x="172" y="333" type="line"/>
			<point x="148" y="313" type="line"/>
			<point x="542" y="313" type="line"/>
			<point x="557" y="387" type="line"/>
			<point x="165" y="387" type="line"/>
			<point x="181" y="367" type="line"/>
			<point x="234" y="633" type="line"/>
			<point x="210" y="613" type="line"/>
			<point x="645" y="613" type="line"/>
			<point x="660" y="687" type="line"/>
		</contour>
	</outline>
</glyph>
<glyph name="G" format="2">
	<advance width="726"/>
	<unicode hex="0047"/>
	<anchor x="493" y="687" name="top"/>
	<anchor x="353" y="0" name="bottom"/>
	<outline>
		<contour>
			<point x="354" y="-12" type="curve"/>
			<point x="354" y="-12" type="line"/>
			<point x="443" y="-12"/>
			<point x="558" y="31"/>
			<point x="631" y="91" type="curve"/>
			<point x="586" y="149" type="line"/>
			<point x="527" y="97"/>
			<point x="437" y="60"/>
			<point x="368" y="60" type="curve"/>
			<point x="247" y="60"/>
			<point x="145" y="161"/>
			<point x="145" y="280" type="curve"/>
			<point x="145" y="468"/>
			<point x="301" y="627"/>
			<point x="487" y="627" type="curve"/>
			<point x="559" y="627"/>
			<point x="635" y="592"/>
			<point x="672" y="542" type="curve"/>
			<point x="733" y="592" type="line"/>
			<point x="683" y="655"/>
			<point x="588" y="699"/>
			<point x="502" y="699" type="curve"/>
			<point x="266" y="699"/>
			<point x="67" y="507"/>
			<point x="67" y="280" type="curve"/>
			<point x="67" y="121"/>
			<point x="198" y="-12"/>
		</contour>
		<contour>
			<point x="601" y="327" type="line"/>
			<point x="553" y="91" type="line"/>
			<point x="631" y="91" type="line"/>
			<point x="687" y="360" type="line"/>
			<point x="412" y="360" type="line"/>
			<point x="396" y="286" type="line"/>
			<point x="624" y="286" type="line"/>
		</contour>
	</outline>
</glyph>
<glyph name="H" format="2">
	<advance width="717"/>
	<unicode hex="0048"/>
	<outline>
		<contour>
			<point x="167" y="687" type="line"/>
			<point x="24" y="0" type="line"/>
			<point x="102" y="0" type="line"/>
			<point x="171" y="335" type="line"/>
			<point x="145" y="313" type="line"/>
			<point x="593" y="313" type="line"/>
			<point x="576" y="335" type="line"/>
			<point x="507" y="0" type="line"/>
			<point x="585" y="0" type="line"/>
			<point x="728" y="687" type="line"/>
			<point x="650" y="687" type="line"/>
			<point x="584" y="365" type="line"/>
			<point x="611" y="387" type="line"/>
			<point x="162" y="387" type="line"/>
			<point x="179" y="365" type="line"/>
			<point x="245" y="687" type="line"/>
		</contour>
	</outline>
</glyph>
<glyph name="I" format="2">
	<advance width="234"/>
	<unicode hex="0049"/>
	<anchor x="206" y="687" name="top"/>
	<anchor x="102" y="0" name="bottom"/>
	<outline>
		<contour>
			<point x="167" y="687" type="line"/>
			<point x="24" y="0" type="line"/>
			<point x="102" y="0" type="line"/>
			<point x="245" y="687" type="line"/>
		</contour>
	</outline>
</glyph>
<glyph name="J" format="2">
	<advance width="544"/>
	<unicode hex="004A"/>
	<outline>
		<contour>
			<point x="200" y="-12" type="curve"/>
			<point x="200" y="-12" type="line"/>
			<point x="327" y="-12"/>
			<point x="436" y="85"/>
			<point x="465" y="221" type="curve"/>
			<point x="562" y="687" type="line"/>
			<point x="484" y="687" type="line"/>
			<point x="389" y="227" type="line" smooth="yes"/>
			<point x="369" y="129"/>
			<point x="296" y="59"/>
			<point x="214" y="59" type="curve"/>
			<point x="150" y="59"/>
			<point x="95" y="99"/>
			<point x="80" y="155" type="curve"/>
			<point x="14" y="105" type="line"/>
			<point x="44" y="36"/>
			<point x="121" y="-12"/>
		</contour>
	</outline>
</glyph>
<glyph name="K" format="2">
	<advance width="671"/>
	<unicode hex="004B"/>
	<anchor x="279" y="0" name="bottom"/>
	<outline>
		<contour>
			<point x="167" y="687" type="line"/>
			<point x="24" y="0" type="line"/>
			<point x="102" y="0" type="line"/>
			<point x="146" y="206" type="line"/>
			<point x="279" y="320" type="line"/>
			<point x="473" y="0" type="line"/>
			<point x="571" y="0" type="line"/>
			<point x="342" y="373" type="line"/>
			<point x="697" y="687" type="line"/>
			<point x="592" y="687" type="line"/>
			<point x="165" y="307" type="line"/>
			<point x="245" y="687" type="line"/>
		</contour>
	</outline>
</glyph>
<glyph name="O" format="2">
	<advance width="815"/>
	<unicode hex="004F"/>
	<anchor x="508" y="687" name="top"/>
	<outline>
		<contour>
			<point x="352" y="-12" type="curve"/>
			<point x="352" y="-12" type="line"/>
			<point x="590" y="-12"/>
			<point x="784" y="178"/>
			<point x="784" y="410" type="curve"/>
			<point x="784" y="581"/>
			<point x="668" y="699"/>
			<point x="499" y="699" type="curve"/>
			<point x="261" y="699"/>
			<point x="67" y="509"/>
			<point x="67" y="277" type="curve"/>
			<point x="67" y="106"/>
			<point x="183" y="-12"/>
		</contour>
		<contour>
			<point x="367" y="60" type="curve"/>
			<point x="367" y="60" type="line"/>
			<point x="236" y="60"/>
			<point x="146" y="151"/>
			<point x="146" y="283" type="curve"/>
			<point x="146" y="472"/>
			<point x="299" y="627"/>
			<point x="485" y="627" type="curve"/>
			<point x="615" y="627"/>
			<point x="705" y="537"/>
			<point x="705" y="407" type="curve"/>
			<point x="705" y="216"/>
			<point x="553" y="60"/>
		</contour>
	</outline>
</glyph>
<glyph name="P" format="2">
	<advance width="661"/>
	<unicode hex="0050"/>
	<outline>
		<contour>
			<point x="167" y="687" type="line"/>
			<point x="24" y="0" type="line"/>
			<point x="102" y="0" type="line"/>
			<point x="154" y="247" type="line"/>
			<point x="350" y="247" type="line" smooth="yes"/>
			<point x="516" y="247"/>
			<point x="656" y="363"/>
			<point x="656" y="500" type="curve"/>
			<point x="656" y="610"/>
			<point x="567" y="687"/>
			<point x="442" y="687" type="curve"/>
		</contour>
		<contour>
			<point x="366" y="321" type="curve"/>
			<point x="169" y="321" type="line"/>
			<point x="230" y="613" type="line"/>
			<point x="426" y="613" type="line" smooth="yes"/>
			<point x="516" y="613"/>
			<point x="579" y="566"/>
			<point x="579" y="499" type="curve"/>
			<point x="579" y="402"/>
			<point x="482" y="321"/>
		</contour>
	</outline>
</glyph>
<glyph name="Q" format="2">
	<advance width="816"/>
	<unicode hex="0051"/>
	<anchor x="508" y="687" name="top"/>
	<outline>
		<contour>
			<point x="446" y="220" type="line"/>
			<point x="656" y="0" type="line"/>
			<point x="710" y="51" type="line"/>
			<point x="500" y="271" type="line"/>
		</contour>
		<contour>
			<point x="352" y="-12" type="curve"/>
			<point x="352" y="-12" type="line"/>
			<point x="590" y="-12"/>
			<point x="784" y="178"/>
			<point x="784" y="410" type="curve"/>
			<point x="784" y="581"/>
			<point x="668" y="699"/>
			<point x="499" y="699" type="curve"/>
			<point x="261" y="699"/>
			<point x="67" y="509"/>
			<point x="67" y="277" type="curve"/>
			<point x="67" y="106"/>
			<point x="183" y="-12"/>
		</contour>
		<contour>
			<point x="367" y="60" type="curve"/>
			<point x="367" y="60" type="line"/>
			<point x="236" y="60"/>
			<point x="146" y="151"/>
			<point x="146" y="283" type="curve"/>
			<point x="146" y="472"/>
			<point x="299" y="627"/>
			<point x="485" y="627" type="curve"/>
			<point x="615" y="627"/>
			<point x="705" y="537"/>
			<point x="705" y="407" type="curve"/>
			<point x="705" y="216"/>
			<point x="553" y="60"/>
		</contour>
	</outline>
</glyph>
<glyph name="S" format="2">
	<advance width="614"/>
	<unicode hex="0053"/>
	<anchor x="399" y="687" name="top"/>
	<anchor x="260" y="0" name="bottom"/>
	<outline>
		<contour>
			<point x="268" y="-11" type="curve"/>
			<point x="268" y="-11" type="line"/>
			<point x="433" y="-11"/>
			<point x="549" y="86"/>
			<point x="549" y="222" type="curve"/>
			<point x="549" y="305"/>
			<point x="494" y="352"/>
			<point x="356" y="385" type="curve"/>
			<point x="244" y="414"/>
			<point x="199" y="442"/>
			<point x="199" y="486" type="curve"/>
			<point x="199" y="570"/>
			<point x="274" y="629"/>
			<point x="380" y="629" type="curve"/>
			<point x="441" y="629"/>
			<point x="514" y="593"/>
			<point x="555" y="543" type="curve"/>
			<point x="612" y="600" type="line"/>
			<point x="559" y="659"/>
			<point x="467" y="700"/>
			<point x="388" y="700" type="curve"/>
			<point x="230" y="700"/>
			<point x="119" y="603"/>
			<point x="119" y="467" type="curve"/>
			<point x="119" y="388"/>
			<point x="174" y="344"/>
			<point x="313" y="311" type="curve"/>
			<point x="424" y="283"/>
			<point x="468" y="253"/>
			<point x="468" y="207" type="curve"/>
			<point x="468" y="121"/>
			<point x="388" y="60"/>
			<point x="274" y="60" type="curve"/>
			<point x="201" y="60"/>
			<point x="118" y="100"/>
			<point x="73" y="157" type="curve"/>
			<point x="15" y="100" type="line"/>
			<point x="69" y="35"/>
			<point x="173" y="-11"/>
		</contour>
	</outline>
</glyph>
<glyph name="T" format="2">
	<advance width="638"/>
	<unicode hex="0054"/>
	<anchor x="408" y="687" name="top"/>
	<anchor x="257" y="0" name="bottom"/>
	<outline>
		<contour>
			<point x="354" y="613" type="line"/>
			<point x="226" y="0" type="line"/>
			<point x="304" y="0" type="line"/>
			<point x="432" y="613" type="line"/>
			<point x="663" y="613" type="line"/>
			<point x="678" y="687" type="line"/>
			<point x="138" y="687" type="line"/>
			<point x="123" y="613" type="line"/>
		</contour>
	</outline>
</glyph>
<glyph name="W" format="2">
	<advance width="1101"/>
	<unicode hex="0057"/>
	<anchor x="639" y="687" name="top"/>
	<outline>
		<contour>
			<point x="136" y="687" type="line"/>
			<point x="228" y="0" type="line"/>
			<point x="305" y="0" type="line"/>
			<point x="620" y="585" type="line"/>
			<point x="688" y="0" type="line"/>
			<point x="765" y="0" type="line"/>
			<point x="1143" y="687" type="line"/>
			<point x="1054" y="687" type="line"/>
			<point x="747" y="131" type="line"/>
			<point x="682" y="687" type="line"/>
			<point x="595" y="687" type="line"/>
			<point x="296" y="131" type="line"/>
			<point x="223" y="687" type="line"/>
		</contour>
	</outline>
</glyph>
<glyph name="Z" format="2">
	<advance width="631"/>
	<unicode hex="005A"/>
	<anchor x="406" y="687" name="top"/>
	<outline>
		<contour>
			<point x="11" y="62" type="line"/>
			<point x="0" y="0" type="line"/>
			<point x="524" y="0" type="line"/>
			<point x="540" y="74" type="line"/>
			<point x="122" y="74" type="line"/>
			<point x="651" y="625" type="line"/>
			<point x="663" y="687" type="line"/>
			<point x="149" y="687" type="line"/>
			<point x="134" y="613" type="line"/>
			<point x="540" y="613" type="line"/>
		</contour>
	</outline>
</glyph>
<glyph name="bracketleft" format="2">
	<advance width="366"/>
	<unicode hex="005B"/>
	<outline>
		<contour>
			<point x="177" y="734" type="line"/>
			<point x="1" y="-115" type="line"/>
			<point x="237" y="-115" type="line"/>
			<point x="248" y="-58" type="line"/>
			<point x="78" y="-58" type="line"/>
			<point x="231" y="677" type="line"/>
			<point x="401" y="677" type="line"/>
			<point x="413" y="734" type="line"/>
		</contour>
	</outline>
</glyph>
<glyph name="backslash" format="2">
	<advance width="488"/>
	<unicode hex="005C"/>
	<outline>
		<contour>
			<point x="128" y="743" type="line"/>
			<point x="309" y="-74" type="line"/>
			<point x="392" y="-74" type="line"/>
			<point x="211" y="743" type="line"/>
		</contour>
	</outline>
</glyph>
<glyph name="bracketright" format="2">
	<advance width="366"/>
	<unicode hex="005D"/>
	<outline>
		<contour>
			<point x="-15" y="-58" type="line"/>
			<point x="-26" y="-115" type="line"/>
			<point x="210" y="-115" type="line"/>
			<point x="386" y="734" type="line"/>
			<point x="150" y="734" type="line"/>
			<point x="138" y="677" type="line"/>
			<point x="308" y="677" type="line"/>
			<point x="155" y="-58" type="line"/>
		</contour>
	</outline>
</glyph>
<glyph name="a" format="2">
	<advance width="595"/>
	<unicode hex="0061"/>
	<anchor x="353" y="517" name="top"/>
	<anchor x="484" y="0" name="bottom"/>
	<outline>
		<contour>
			<point x="224" y="-12" type="curve"/>
			<point x="224" y="-12" type="line"/>
			<point x="379" y="-12"/>
			<point x="509" y="145"/>
			<point x="509" y="331" type="curve"/>
			<point x="509" y="438"/>
			<point x="430" y="529"/>
			<point x="336" y="529" type="curve"/>
			<point x="170" y="529"/>
			<point x="30" y="376"/>
			<point x="30" y="194" type="curve"/>
			<point x="30" y="82"/>
			<point x="119" y="-12"/>
		</contour>
		<contour>
			<point x="238" y="55" type="curve"/>
			<point x="238" y="55" type="line"/>
			<point x="167" y="55"/>
			<point x="108" y="121"/>
			<point x="108" y="199" type="curve"/>
			<point x="108" y="342"/>
			<point x="206" y="462"/>
			<point x="322" y="462" type="curve"/>
			<point x="402" y="462"/>
			<point x="470" y="396"/>
			<point x="470" y="318" type="curve"/>
			<point x="470" y="175"/>
			<point x="364" y="55"/>
		</contour>
		<contour>
			<point x="517" y="517" type="line"/>
			<point x="409" y="0" type="line"/>
			<point x="484" y="0" type="line"/>
			<point x="592" y="517" type="line"/>
		</contour>
	</outline>
</glyph>
<glyph name="e" format="2">
	<advance width="542"/>
	<unicode hex="0065"/>
	<anchor x="350" y="517" name="top"/>
	<anchor x="240" y="-12" name="bottom"/>
	<outline>
		<contour>
			<point x="240" y="-12" type="curve"/>
			<point x="240" y="-12" type="line"/>
			<point x="310" y="-12"/>
			<point x="413" y="17"/>
			<point x="468" y="66" type="curve"/>
			<point x="428" y="119" type="line"/>
			<point x="390" y="84"/>
			<point x="317" y="55"/>
			<point x="253" y="55" type="curve"/>
			<point x="161" y="55"/>
			<point x="105" y="116"/>
			<point x="105" y="210" type="curve"/>
			<point x="105" y="334"/>
			<point x="203" y="462"/>
			<point x="342" y="462" type="curve"/>
			<point x="409" y="462"/>
			<point x="459" y="432"/>
			<point x="459" y="382" type="curve"/>
			<point x="459" y="328"/>
			<point x="402" y="297"/>
			<point x="302" y="297" type="curve"/>
			<point x="95" y="297" type="line"/>
			<point x="81" y="230" type="line"/>
			<point x="288" y="230" type="line"/>
			<point x="442" y="230"/>
			<point x="533" y="295"/>
			<point x="533" y="386" type="curve"/>
			<point x="533" y="475"/>
			<point x="445" y="529"/>
			<point x="348" y="529" type="curve"/>
			<point x="185" y="529"/>
			<point x="31" y="376"/>
			<point x="31" y="204" type="curve"/>
			<point x="31" y="75"/>
			<point x="118" y="-12"/>
		</contour>
	</outline>
</glyph>
<glyph name="h" format="2">
	<advance width="546"/>
	<unicode hex="0068"/>
	<outline>
		<contour>
			<point x="150" y="699" type="line"/>
			<point x="5" y="0" type="line"/>
			<point x="80" y="0" type="line"/>
			<point x="225" y="699" type="line"/>
		</contour>
		<contour>
			<point x="367" y="0" type="curve"/>
			<point x="367" y="0" type="line"/>
			<point x="442" y="0" type="line"/>
			<point x="507" y="311"/>
			<point x="515" y="336"/>
			<point x="515" y="374" type="curve"/>
			<point x="515" y="466"/>
			<point x="453" y="529"/>
			<point x="353" y="529" type="curve"/>
			<point x="260" y="529"/>
			<point x="164" y="463"/>
			<point x="142" y="382" type="curve"/>
			<point x="147" y="326" type="line"/>
			<point x="162" y="398"/>
			<point x="250" y="462"/>
			<point x="340" y="462" type="curve"/>
			<point x="401" y="462"/>
			<point x="438" y="423"/>
			<point x="438" y="361" type="curve"/>
			<point x="438" y="330"/>
			<point x="431" y="308"/>
		</contour>
	</outline>
</glyph>
<glyph name="k" format="2">
	<advance width="539"/>
	<unicode hex="006B"/>
	<anchor x="200" y="0" name="bottom"/>
	<outline>
		<contour>
			<point x="150" y="699" type="line"/>
			<point x="5" y="0" type="line"/>
			<point x="80" y="0" type="line"/>
			<point x="109" y="138" type="line"/>
			<point x="220" y="229" type="line"/>
			<point x="351" y="0" type="line"/>
			<point x="442" y="0" type="line"/>
			<point x="282" y="280" type="line"/>
			<point x="565" y="517" type="line"/>
			<point x="467" y="517" type="line"/>
			<point x="129" y="234" type="line"/>
			<point x="225" y="699" type="line"/>
		</contour>
	</outline>
</glyph>
<glyph name="m" format="2">
	<advance width="850"/>
	<unicode hex="006D"/>
	<anchor x="149" y="517" name="top"/>
	<anchor x="78" y="0" name="bottom"/>
	<outline>
		<contour>
			<point x="111" y="517" type="line"/>
			<point x="3" y="0" type="line"/>
			<point x="78" y="0" type="line"/>
			<point x="186" y="517" type="line"/>
		</contour>
		<contour>
			<point x="337" y="0" type="curve"/>
			<point x="337" y="0" type="line"/>
			<point x="412" y="0" type="line"/>
			<point x="479" y="320"/>
			<point x="486" y="344"/>
			<point x="486" y="376" type="curve"/>
			<point x="486" y="467"/>
			<point x="427" y="529"/>
			<point x="334" y="529" type="curve"/>
			<point x="245" y="529"/>
			<point x="166" y="472"/>
			<point x="142" y="382" type="curve"/>
			<point x="146" y="326" type="line"/>
			<point x="162" y="406"/>
			<point x="240" y="462"/>
			<point x="316" y="462" type="curve"/>
			<point x="378" y="462"/>
			<point x="409" y="424"/>
			<point x="409" y="359" type="curve"/>
			<point x="409" y="339"/>
			<point x="406" y="331"/>
		</contour>
		<contour>
			<point x="671" y="0" type="curve"/>
			<point x="671" y="0" type="line"/>
			<point x="746" y="0" type="line"/>
			<point x="813" y="320"/>
			<point x="820" y="344"/>
			<point x="820" y="376" type="curve"/>
			<point x="820" y="467"/>
			<point x="761" y="529"/>
			<point x="668" y="529" type="curve"/>
			<point x="579" y="529"/>
			<point x="500" y="472"/>
			<point x="476" y="382" type="curve"/>
			<point x="480" y="326" type="line"/>
			<point x="496" y="406"/>
			<point x="574" y="462"/>
			<point x="650" y="462" type="curve"/>
			<point x="712" y="462"/>
			<point x="743" y="424"/>
			<point x="743" y="359" type="curve"/>
			<point x="743" y="339"/>
			<point x="740" y="331"/>
		</contour>
	</outline>
</glyph>
<glyph name="n" format="2">
	<advance width="545"/>
	<unicode hex="006E"/>
	<anchor x="358" y="517" name="top"/>
	<anchor x="227" y="0" name="bottom"/>
	<outline>
		<contour>
			<point x="111" y="517" type="line"/>
			<point x="3" y="0" type="line"/>
			<point x="78" y="0" type="line"/>
			<point x="186" y="517" type="line"/>
		</contour>
		<contour>
			<point x="366" y="0" type="curve"/>
			<point x="366" y="0" type="line"/>
			<point x="441" y="0" type="line"/>
			<point x="506" y="311"/>
			<point x="514" y="336"/>
			<point x="514" y="374" type="curve"/>
			<point x="514" y="466"/>
			<point x="452" y="529"/>
			<point x="352" y="529" type="curve"/>
			<point x="259" y="529"/>
			<point x="163" y="463"/>
			<point x="141" y="382" type="curve"/>
			<point x="146" y="326" type="line"/>
			<point x="161" y="398"/>
			<point x="249" y="462"/>
			<point x="339" y="462" type="curve"/>
			<point x="400" y="462"/>
			<point x="437" y="423"/>
			<point x="437" y="361" type="curve"/>
			<point x="437" y="330"/>
			<point x="430" y="308"/>
		</contour>
	</outline>
</glyph>
<glyph name="r" format="2">
	<advance width="364"/>
	<unicode hex="0072"/>
	<anchor x="258" y="517" name="top"/>
	<anchor x="150" y="0" name="bottom"/>
	<outline>
		<contour>
			<point x="111" y="517" type="line"/>
			<point x="3" y="0" type="line"/>
			<point x="78" y="0" type="line"/>
			<point x="186" y="517" type="line"/>
		</contour>
		<contour>
			<point x="133" y="342" type="curve"/>
			<point x="137" y="287" type="line"/>
			<point x="158" y="388"/>
			<point x="259" y="462"/>
			<point x="376" y="462" type="curve"/>
			<point x="385" y="529" type="line"/>
			<point x="258" y="529"/>
			<point x="156" y="453"/>
		</contour>
	</outline>
</glyph>
<glyph name="v" format="2">
	<advance width="565"/>
	<unicode hex="0076"/>
	<outline>
		<contour>
			<point x="82" y="517" type="line"/>
			<point x="194" y="0" type="line"/>
			<point x="266" y="0" type="line"/>
			<point x="591" y="517" type="line"/>
			<point x="505" y="517" type="line"/>
			<point x="246" y="88" type="line"/>
			<point x="164" y="517" type="line"/>
		</contour>
	</outline>
</glyph>
<glyph name="bar" format="2">
	<advance width="236"/>
	<unicode hex="007C"/>
	<outline>
		<contour>
			<point x="189" y="743" type="line"/>
			<point x="19" y="-74" type="line"/>
			<point x="79" y="-74" type="line"/>
			<point x="249" y="743" type="line"/>
		</contour>
	</outline>
</glyph>
<glyph name="cent" format="2">
	<advance width="597"/>
	<unicode hex="00A2"/>
	<anchor x="382" y="517" name="top"/>
	<anchor x="281" y="0" name="bottom"/>
	<outline>
		<contour>
			<point x="371" y="589" type="line"/>
			<point x="233" y="-74" type="line"/>
			<point x="311" y="-74" type="line"/>
			<point x="449" y="589" type="line"/>
		</contour>
		<contour>
			<point x="284" y="-12" type="curve"/>
			<point x="284" y="-12" type="line"/>
			<point x="360" y="-12"/>
			<point x="428" y="13"/>
			<point x="490" y="65" type="curve"/>
			<point x="445" y="120" type="line"/>
			<point x="398" y="76"/>
			<point x="349" y="55"/>
			<point x="297" y="55" type="curve"/>
			<point x="216" y="55"/>
			<point x="147" y="127"/>
			<point x="147" y="213" type="curve"/>
			<point x="147" y="348"/>
			<point x="254" y="462"/>
			<point x="382" y="462" type="curve"/>
			<point x="430" y="462"/>
			<point x="481" y="438"/>
			<point x="505" y="404" type="curve"/>
			<point x="564" y="451" type="line"/>
			<point x="525" y="497"/>
			<point x="456" y="529"/>
			<point x="396" y="529" type="curve"/>
			<point x="218" y="529"/>
			<point x="69" y="382"/>
			<point x="69" y="208" type="curve"/>
			<point x="69" y="89"/>
			<point x="167" y="-12"/>
		</contour>
	</outline>
</glyph>
<glyph name="dieresis" format="2">
	<advance width="361"/>
	<unicode hex="00A8"/>
	<anchor x="274" y="704" name="top"/>
	<anchor x="235" y="517" name="_top"/>
	<outline>
		<contour>
			<point x="161" y="597" type="curve"/>
			<point x="161" y="597" type="line"/>
			<point x="186" y="597"/>
			<point x="211" y="621"/>
			<point x="211" y="647" type="curve"/>
			<point x="211" y="670"/>
			<point x="194" y="689"/>
			<point x="169" y="689" type="curve"/>
			<point x="142" y="689"/>
			<point x="119" y="664"/>
			<point x="119" y="639" type="curve"/>
			<point x="119" y="616"/>
			<point x="135" y="597"/>
		</contour>
		<contour>
			<point x="353" y="597" type="curve"/>
			<point x="353" y="597" type="line"/>
			<point x="378" y="597"/>
			<point x="403" y="621"/>
			<point x="403" y="647" type="curve"/>
			<point x="403" y="670"/>
			<point x="386" y="689"/>
			<point x="361" y="689" type="curve"/>
			<point x="334" y="689"/>
			<point x="311" y="664"/>
			<point x="311" y="639" type="curve"/>
			<point x="311" y="616"/>
			<point x="327" y="597"/>
		</contour>
	</outline>
</glyph>
<glyph name="copyright" format="2">
	<advance width="922"/>
	<unicode hex="00A9"/>
	<outline>
		<contour>
			<point x="384" y="-116" type="curve"/>
			<point x="384" y="-116" type="line"/>
			<point x="645" y="-116"/>
			<point x="871" y="110"/>
			<point x="871" y="366" type="curve"/>
			<point x="871" y="548"/>
			<point x="746" y="675"/>
			<point x="548" y="675" type="curve"/>
			<point x="287" y="675"/>
			<point x="60" y="450"/>
			<point x="60" y="194" type="curve"/>
			<point x="60" y="12"/>
			<point x="188" y="-116"/>
		</contour>
		<contour>
			<point x="391" y="-80" type="curve"/>
			<point x="391" y="-80" type="line"/>
			<point x="213" y="-80"/>
			<point x="97" y="36"/>
			<point x="97" y="202" type="curve"/>
			<point x="97" y="433"/>
			<point x="302" y="639"/>
			<point x="541" y="639" type="curve"/>
			<point x="720" y="639"/>
			<point x="835" y="519"/>
			<point x="835" y="359" type="curve"/>
			<point x="835" y="128"/>
			<point x="631" y="-80"/>
		</contour>
		<contour>
			<point x="414" y="9" type="curve"/>
			<point x="414" y="9" type="line"/>
			<point x="490" y="9"/>
			<point x="558" y="34"/>
			<point x="620" y="86" type="curve"/>
			<point x="575" y="141" type="line"/>
			<point x="528" y="97"/>
			<point x="479" y="76"/>
			<point x="427" y="76" type="curve"/>
			<point x="346" y="76"/>
			<point x="277" y="148"/>
			<point x="277" y="234" type="curve"/>
			<point x="277" y="369"/>
			<point x="384" y="483"/>
			<point x="512" y="483" type="curve"/>
			<point x="560" y="483"/>
			<point x="611" y="459"/>
			<point x="635" y="425" type="curve"/>
			<point x="694" y="472" type="line"/>
			<point x="655" y="518"/>
			<point x="586" y="550"/>
			<point x="526" y="550" type="curve"/>
			<point x="348" y="550"/>
			<point x="199" y="403"/>
			<point x="199" y="229" type="curve"/>
			<point x="199" y="110"/>
			<point x="297" y="9"/>
		</contour>
	</outline>
</glyph>
<glyph name="registered" format="2">
	<advance width="623"/>
	<unicode hex="00AE"/>
	<outline>
		<contour>
			<point x="297" y="184" type="curve"/>
			<point x="297" y="184" type="line"/>
			<point x="450" y="184"/>
			<point x="599" y="327"/>
			<point x="599" y="479" type="curve"/>
			<point x="599" y="591"/>
			<point x="517" y="675"/>
			<point x="399" y="675" type="curve"/>
			<point x="244" y="675"/>
			<point x="96" y="534"/>
			<point x="96" y="381" type="curve"/>
			<point x="96" y="269"/>
			<point x="178" y="184"/>
		</contour>
		<contour>
			<point x="304" y="220" type="curve"/>
			<point x="304" y="220" type="line"/>
			<point x="203" y="220"/>
			<point x="133" y="292"/>
			<point x="133" y="387" type="curve"/>
			<point x="133" y="520"/>
			<point x="260" y="639"/>
			<point x="392" y="639" type="curve"/>
			<point x="493" y="639"/>
			<point x="563" y="567"/>
			<point x="563" y="473" type="curve"/>
			<point x="563" y="345"/>
			<point x="440" y="220"/>
		</contour>
		<contour>
			<point x="307" y="397" type="line"/>
			<point x="366" y="279" type="line"/>
			<point x="453" y="279" type="line"/>
			<point x="394" y="397" type="line"/>
		</contour>
		<contour>
			<point x="360" y="444" type="curve"/>
			<point x="302" y="444" type="line"/>
			<point x="315" y="505" type="line"/>
			<point x="373" y="505" type="line" smooth="yes"/>
			<point x="395" y="505"/>
			<point x="410" y="495"/>
			<point x="410" y="481" type="curve"/>
			<point x="410" y="460"/>
			<point x="388" y="444"/>
		</contour>
		<contour>
			<point x="252" y="579" type="line"/>
			<point x="190" y="279" type="line"/>
			<point x="268" y="279" type="line"/>
			<point x="287" y="370" type="line"/>
			<point x="353" y="370" type="line" smooth="yes"/>
			<point x="429" y="370"/>
			<point x="491" y="424"/>
			<point x="491" y="499" type="curve"/>
			<point x="491" y="547"/>
			<point x="455" y="579"/>
			<point x="396" y="579" type="curve"/>
		</contour>
	</outline>
</glyph>
<glyph name="degree" format="2">
	<advance width="418"/>
	<unicode hex="00B0"/>
	<outline>
		<contour>
			<point x="249" y="423" type="curve"/>
			<point x="249" y="423" type="line"/>
			<point x="345" y="423"/>
			<point x="414" y="493"/>
			<point x="414" y="587" type="curve"/>
			<point x="414" y="652"/>
			<point x="364" y="699"/>
			<point x="295" y="699" type="curve"/>
			<point x="199" y="699"/>
			<point x="130" y="630"/>
			<point x="130" y="535" type="curve"/>
			<point x="130" y="470"/>
			<point x="180" y="423"/>
		</contour>
		<contour>
			<point x="256" y="485" type="curve"/>
			<point x="256" y="485" type="line"/>
			<point x="222" y="485"/>
			<point x="198" y="509"/>
			<point x="198" y="543" type="curve"/>
			<point x="198" y="598"/>
			<point x="236" y="637"/>
			<point x="288" y="637" type="curve"/>
			<point x="322" y="637"/>
			<point x="346" y="613"/>
			<point x="346" y="579" type="curve"/>
			<point x="346" y="524"/>
			<point x="308" y="485"/>
		</contour>
	</outline>
</glyph>
<glyph name="acute" format="2">
	<advance width="262"/>
	<unicode hex="00B4"/>
	<anchor x="151" y="704" name="top"/>
	<anchor x="113" y="517" name="_top"/>
	<outline>
		<contour>
			<point x="247" y="720" type="line"/>
			<point x="96" y="576" type="line"/>
			<point x="156" y="576" type="line"/>
			<point x="324" y="702" type="line"/>
		</contour>
	</outline>
</glyph>
<glyph name="periodcentered" format="2">
	<advance width="220"/>
	<unicode hex="00B7"/>
	<outline>
		<contour>
			<point x="108" y="221" type="curve"/>
			<point x="108" y="221" type="line"/>
			<point x="137" y="221"/>
			<point x="164" y="246"/>
			<point x="164" y="279" type="curve"/>
			<point x="164" y="305"/>
			<point x="145" y="324"/>
			<point x="118" y="324" type="curve"/>
			<point x="88" y="324"/>
			<point x="62" y="299"/>
			<point x="62" y="266" type="curve"/>
			<point x="62" y="240"/>
			<point x="80" y="221"/>
		</contour>
	</outline>
</glyph>
<glyph name="cedilla" format="2">
	<advance width="253"/>
	<unicode hex="00B8"/>
	<anchor x="78" y="0" name="_bottom"/>
	<outline>
		<contour>
			<point x="30" y="-192" type="curve"/>
			<point x="30" y="-192" type="line"/>
			<point x="88" y="-192"/>
			<point x="140" y="-156"/>
			<point x="140" y="-101" type="curve"/>
			<point x="140" y="-68"/>
			<point x="115" y="-45"/>
			<point x="79" y="-45" type="curve"/>
			<point x="58" y="-45"/>
			<point x="30" y="-52"/>
			<point x="11" y="-65" type="curve"/>
			<point x="60" y="-67" type="line"/>
			<point x="110" y="11" type="line"/>
			<point x="56" y="11" type="line"/>
			<point x="8" y="-67" type="line"/>
			<point x="23" y="-86" type="line"/>
			<point x="34" y="-78"/>
			<point x="48" y="-73"/>
			<point x="62" y="-73" type="curve"/>
			<point x="78" y="-73"/>
			<point x="90" y="-85"/>
			<point x="90" y="-102" type="curve"/>
			<point x="90" y="-129"/>
			<point x="66" y="-145"/>
			<point x="25" y="-145" type="curve"/>
			<point x="6" y="-145"/>
			<point x="-16" y="-140"/>
			<point x="-32" y="-124" type="curve"/>
			<point x="-56" y="-162" type="line"/>
			<point x="-38" y="-178"/>
			<point x="-8" y="-192"/>
		</contour>
	</outline>
</glyph>
<glyph name="AE" format="2">
	<advance width="984"/>
	<unicode hex="00C6"/>
	<anchor x="623" y="0" name="bottom"/>
	<outline>
		<contour>
			<point x="526" y="687" type="line"/>
			<point x="-8" y="0" type="line"/>
			<point x="85" y="0" type="line"/>
			<point x="207" y="156" type="line"/>
			<point x="415" y="156" type="line"/>
			<point x="383" y="0" type="line"/>
			<point x="876" y="0" type="line"/>
			<point x="892" y="74" type="line"/>
			<point x="479" y="74" type="line"/>
			<point x="527" y="313" type="line"/>
			<point x="901" y="313" type="line"/>
			<point x="916" y="387" type="line"/>
			<point x="544" y="387" type="line"/>
			<point x="589" y="613" type="line"/>
			<point x="1004" y="613" type="line"/>
			<point x="1019" y="687" type="line"/>
		</contour>
		<contour>
			<point x="431" y="230" type="line"/>
			<point x="265" y="230" type="line"/>
			<point x="491" y="517" type="line"/>
		</contour>
	</outline>
</glyph>
<glyph name="Eth" format="2">
	<advance width="760"/>
	<unicode hex="00D0"/>
	<outline>
		<contour>
			<point x="76" y="387" type="line"/>
			<point x="61" y="313" type="line"/>
			<point x="409" y="313" type="line"/>
			<point x="425" y="387" type="line"/>
		</contour>
		<contour>
			<point x="190" y="687" type="line"/>
			<point x="47" y="0" type="line"/>
			<point x="282" y="0" type="line" smooth="yes"/>
			<point x="525" y="0"/>
			<point x="730" y="189"/>
			<point x="730" y="414" type="curve"/>
			<point x="730" y="574"/>
			<point x="602" y="687"/>
			<point x="420" y="687" type="curve"/>
		</contour>
		<contour>
			<point x="291" y="71" type="curve"/>
			<point x="140" y="71" type="line"/>
			<point x="254" y="616" type="line"/>
			<point x="410" y="616" type="line" smooth="yes"/>
			<point x="551" y="616"/>
			<point x="651" y="530"/>
			<point x="651" y="409" type="curve"/>
			<point x="651" y="226"/>
			<point x="486" y="71"/>
		</contour>
	</outline>
</glyph>
<glyph name="Thorn" format="2">
	<advance width="663"/>
	<unicode hex="00DE"/>
	<outline>
		<contour>
			<point x="167" y="687" type="line"/>
			<point x="24" y="0" type="line"/>
			<point x="102" y="0" type="line"/>
			<point x="129" y="126" type="line"/>
			<point x="332" y="126" type="line" smooth="yes"/>
			<point x="490" y="126"/>
			<point x="632" y="237"/>
			<point x="632" y="385" type="curve"/>
			<point x="632" y="493"/>
			<point x="543" y="566"/>
			<point x="418" y="566" type="curve"/>
			<point x="222" y="566" type="line"/>
			<point x="247" y="687" type="line"/>
		</contour>
		<contour>
			<point x="328" y="200" type="curve"/>
			<point x="144" y="200" type="line"/>
			<point x="205" y="492" type="line"/>
			<point x="395" y="492" type="line" smooth="yes"/>
			<point x="494" y="492"/>
			<point x="554" y="452"/>
			<point x="554" y="381" type="curve"/>
			<point x="554" y="274"/>
			<point x="451" y="200"/>
		</contour>
	</outline>
</glyph>
<glyph name="germandbls" format="2">
	<advance width="536"/>
	<unicode hex="00DF"/>
	<outline>
		<contour>
			<point x="115" y="529" type="curve"/>
			<point x="4" y="0" type="line"/>
			<point x="82" y="0" type="line"/>
			<point x="189" y="510" type="line" smooth="yes"/>
			<point x="204" y="582"/>
			<point x="272" y="636"/>
			<point x="350" y="636" type="curve"/>
			<point x="414" y="636"/>
			<point x="454" y="600"/>
			<point x="454" y="547" type="curve"/>
			<point x="454" y="470"/>
			<point x="377" y="396"/>
			<point x="292" y="396" type="curve"/>
			<point x="240" y="396" type="line"/>
			<point x="225" y="325" type="line"/>
			<point x="295" y="325" type="line" smooth="yes"/>
			<point x="369" y="325"/>
			<point x="415" y="287"/>
			<point x="415" y="229" type="curve"/>
			<point x="415" y="145"/>
			<point x="332" y="71"/>
			<point x="236" y="71" type="curve"/>
			<point x="172" y="71" type="line"/>
			<point x="157" y="0" type="line"/>
			<point x="247" y="0" type="line" smooth="yes"/>
			<point x="378" y="0"/>
			<point x="490" y="95"/>
			<point x="490" y="220" type="curve"/>
			<point x="490" y="281"/>
			<point x="456" y="330"/>
			<point x="399" y="362" type="curve"/>
			<point x="480" y="404"/>
			<point x="534" y="472"/>
			<point x="534" y="558" type="curve"/>
			<point x="534" y="647"/>
			<point x="465" y="707"/>
			<point x="355" y="707" type="curve"/>
			<point x="236" y="707"/>
			<point x="137" y="635"/>
		</contour>
	</outline>
</glyph>
<glyph name="eth" format="2">
	<advance width="582"/>
	<unicode hex="00F0"/>
	<outline>
		<contour>
			<point x="245" y="56" type="curve"/>
			<point x="245" y="56" type="line"/>
			<point x="159" y="56"/>
			<point x="107" y="110"/>
			<point x="107" y="193" type="curve"/>
			<point x="107" y="320"/>
			<point x="207" y="432"/>
			<point x="331" y="432" type="curve"/>
			<point x="420" y="432"/>
			<point x="468" y="373"/>
			<point x="468" y="294" type="curve"/>
			<point x="468" y="170"/>
			<point x="366" y="56"/>
		</contour>
		<contour>
			<point x="332" y="714" type="curve"/>
			<point x="254" y="687" type="line"/>
			<point x="352" y="611"/>
			<point x="440" y="522"/>
			<point x="470" y="417" type="curve"/>
			<point x="435" y="466"/>
			<point x="387" y="498"/>
			<point x="315" y="498" type="curve"/>
			<point x="155" y="498"/>
			<point x="29" y="352"/>
			<point x="29" y="192" type="curve"/>
			<point x="29" y="70"/>
			<point x="111" y="-12"/>
			<point x="241" y="-12" type="curve"/>
			<point x="421" y="-12"/>
			<point x="554" y="159"/>
			<point x="554" y="342" type="curve"/>
			<point x="554" y="477"/>
			<point x="473" y="584"/>
		</contour>
		<contour>
			<point x="222" y="587" type="line"/>
			<point x="237" y="525" type="line"/>
			<point x="517" y="640" type="line"/>
			<point x="502" y="702" type="line"/>
		</contour>
	</outline>
</glyph>
<glyph name="divide" format="2">
	<advance width="585"/>
	<unicode hex="00F7"/>
	<outline>
		<contour>
			<point x="85" y="371" type="line"/>
			<point x="69" y="297" type="line"/>
			<point x="528" y="297" type="line"/>
			<point x="544" y="371" type="line"/>
		</contour>
		<contour>
			<point x="269" y="118" type="curve"/>
			<point x="269" y="118" type="line"/>
			<point x="299" y="118"/>
			<point x="327" y="147"/>
			<point x="327" y="179" type="curve"/>
			<point x="327" y="205"/>
			<point x="308" y="226"/>
			<point x="280" y="226" type="curve"/>
			<point x="250" y="226"/>
			<point x="220" y="202"/>
			<point x="220" y="166" type="curve"/>
			<point x="220" y="139"/>
			<point x="239" y="118"/>
		</contour>
		<contour>
			<point x="336" y="442" type="curve"/>
			<point x="336" y="442" type="line"/>
			<point x="365" y="442"/>
			<point x="395" y="470"/>
			<point x="395" y="502" type="curve"/>
			<point x="395" y="528"/>
			<point x="375" y="550"/>
			<point x="347" y="550" type="curve"/>
			<point x="317" y="550"/>
			<point x="287" y="526"/>
			<point x="287" y="490" type="curve"/>
			<point x="287" y="463"/>
			<point x="306" y="442"/>
		</contour>
	</outline>
</glyph>
<glyph name="oslash" format="2">
	<advance width="616"/>
	<unicode hex="00F8"/>
	<outline>
		<contour>
			<point x="548" y="517" type="line"/>
			<point x="-1" y="0" type="line"/>
			<point x="86" y="0" type="line"/>
			<point x="635" y="517" type="line"/>
		</contour>
		<contour>
			<point x="246" y="-12" type="curve"/>
			<point x="246" y="-12" type="line"/>
			<point x="425" y="-12"/>
			<point x="576" y="135"/>
			<point x="576" y="309" type="curve"/>
			<point x="576" y="428"/>
			<point x="476" y="529"/>
			<point x="358" y="529" type="curve"/>
			<point x="181" y="529"/>
			<point x="32" y="382"/>
			<point x="32" y="208" type="curve"/>
			<point x="32" y="89"/>
			<point x="130" y="-12"/>
		</contour>
		<contour>
			<point x="260" y="55" type="curve"/>
			<point x="260" y="55" type="line"/>
			<point x="179" y="55"/>
			<point x="110" y="127"/>
			<point x="110" y="213" type="curve"/>
			<point x="110" y="348"/>
			<point x="217" y="462"/>
			<point x="344" y="462" type="curve"/>
			<point x="428" y="462"/>
			<point x="498" y="389"/>
			<point x="498" y="303" type="curve"/>
			<point x="498" y="168"/>
			<point x="389" y="55"/>
		</contour>
	</outline>
</glyph>
<glyph name="idotless" format="2">
	<advance width="189"/>
	<unicode hex="0131"/>
	<guideline x="268" y="0" angle="0"/>
	<anchor x="149" y="517" name="top"/>
	<anchor x="78" y="0" name="bottom"/>
	<outline>
		<contour>
			<point x="111" y="517" type="line"/>
			<point x="3" y="0" type="line"/>
			<point x="78" y="0" type="line"/>
			<point x="186" y="517" type="line"/>
		</contour>
	</outline>
</glyph>
<glyph name="lslash" format="2">
	<advance width="297"/>
	<unicode hex="0142"/>
	<outline>
		<contour>
			<point x="42" y="309" type="line"/>
			<point x="28" y="234" type="line"/>
			<point x="286" y="354" type="line"/>
			<point x="300" y="429" type="line"/>
		</contour>
		<contour>
			<point x="207" y="699" type="line"/>
			<point x="62" y="0" type="line"/>
			<point x="137" y="0" type="line"/>
			<point x="282" y="699" type="line"/>
		</contour>
	</outline>
</glyph>
<glyph name="OE" format="2">
	<advance width="1033"/>
	<unicode hex="0152"/>
	<outline>
		<contour>
			<point x="64" y="271" type="curve"/>
			<point x="64" y="271" type="line"/>
			<point x="64" y="111"/>
			<point x="188" y="0"/>
			<point x="355" y="0" type="curve"/>
			<point x="925" y="0" type="line"/>
			<point x="941" y="74" type="line"/>
			<point x="528" y="74" type="line"/>
			<point x="576" y="313" type="line"/>
			<point x="950" y="313" type="line"/>
			<point x="965" y="387" type="line"/>
			<point x="593" y="387" type="line"/>
			<point x="638" y="613" type="line"/>
			<point x="1053" y="613" type="line"/>
			<point x="1068" y="687" type="line"/>
			<point x="493" y="687" type="line" smooth="yes"/>
			<point x="280" y="687"/>
			<point x="64" y="488"/>
		</contour>
		<contour>
			<point x="142" y="273" type="curve"/>
			<point x="142" y="273" type="line"/>
			<point x="142" y="444"/>
			<point x="312" y="615"/>
			<point x="483" y="615" type="curve"/>
			<point x="560" y="615" type="line"/>
			<point x="447" y="72" type="line"/>
			<point x="365" y="72" type="line" smooth="yes"/>
			<point x="236" y="72"/>
			<point x="142" y="152"/>
		</contour>
	</outline>
</glyph>
<glyph name="oe" format="2">
	<advance width="1001"/>
	<unicode hex="0153"/>
	<anchor x="353" y="517" name="top"/>
	<anchor x="699" y="-12" name="bottom"/>
	<outline>
		<contour>
			<point x="245" y="-12" type="curve"/>
			<point x="245" y="-12" type="line"/>
			<point x="424" y="-12"/>
			<point x="575" y="135"/>
			<point x="575" y="309" type="curve"/>
			<point x="575" y="428"/>
			<point x="475" y="529"/>
			<point x="357" y="529" type="curve"/>
			<point x="180" y="529"/>
			<point x="31" y="382"/>
			<point x="31" y="208" type="curve"/>
			<point x="31" y="89"/>
			<point x="129" y="-12"/>
		</contour>
		<contour>
			<point x="259" y="55" type="curve"/>
			<point x="259" y="55" type="line"/>
			<point x="178" y="55"/>
			<point x="109" y="127"/>
			<point x="109" y="213" type="curve"/>
			<point x="109" y="348"/>
			<point x="216" y="462"/>
			<point x="343" y="462" type="curve"/>
			<point x="427" y="462"/>
			<point x="497" y="389"/>
			<point x="497" y="303" type="curve"/>
			<point x="497" y="168"/>
			<point x="388" y="55"/>
		</contour>
		<contour>
			<point x="699" y="-12" type="curve"/>
			<point x="699" y="-12" type="line"/>
			<point x="769" y="-12"/>
			<point x="872" y="17"/>
			<point x="927" y="66" type="curve"/>
			<point x="887" y="119" type="line"/>
			<point x="849" y="84"/>
			<point x="776" y="55"/>
			<point x="712" y="55" type="curve"/>
			<point x="620" y="55"/>
			<point x="564" y="116"/>
			<point x="564" y="210" type="curve"/>
			<point x="564" y="334"/>
			<point x="662" y="462"/>
			<point x="801" y="462" type="curve"/>
			<point x="868" y="462"/>
			<point x="918" y="432"/>
			<point x="918" y="382" type="curve"/>
			<point x="918" y="328"/>
			<point x="861" y="297"/>
			<point x="761" y="297" type="curve"/>
			<point x="554" y="297" type="line"/>
			<point x="540" y="230" type="line"/>
			<point x="747" y="230" type="line"/>
			<point x="901" y="230"/>
			<point x="992" y="295"/>
			<point x="992" y="386" type="curve"/>
			<point x="992" y="475"/>
			<point x="904" y="529"/>
			<point x="807" y="529" type="curve"/>
			<point x="644" y="529"/>
			<point x="490" y="376"/>
			<point x="490" y="204" type="curve"/>
			<point x="490" y="75"/>
			<point x="577" y="-12"/>
		</contour>
	</outline>
</glyph>
<glyph name="breve" format="2">
	<advance width="356"/>
	<unicode hex="02D8"/>
	<anchor x="269" y="704" name="top"/>
	<anchor x="230" y="517" name="_top"/>
	<outline>
		<contour>
			<point x="250" y="589" type="curve"/>
			<point x="250" y="589" type="line"/>
			<point x="301" y="589"/>
			<point x="357" y="607"/>
			<point x="405" y="647" type="curve"/>
			<point x="364" y="698" type="line"/>
			<point x="332" y="672"/>
			<point x="291" y="654"/>
			<point x="253" y="654" type="curve"/>
			<point x="221" y="654"/>
			<point x="187" y="668"/>
			<point x="166" y="694" type="curve"/>
			<point x="113" y="651" type="line"/>
			<point x="147" y="611"/>
			<point x="195" y="589"/>
		</contour>
	</outline>
</glyph>
<glyph name="ogonek" format="2">
	<advance width="265"/>
	<unicode hex="02DB"/>
	<anchor x="102" y="0" name="_bottom"/>
	<outline>
		<contour>
			<point x="64" y="-173" type="curve"/>
			<point x="64" y="-173" type="line"/>
			<point x="93" y="-173"/>
			<point x="123" y="-165"/>
			<point x="150" y="-146" type="curve"/>
			<point x="124" y="-93" type="line"/>
			<point x="111" y="-106"/>
			<point x="91" y="-114"/>
			<point x="70" y="-114" type="curve"/>
			<point x="43" y="-114"/>
			<point x="27" y="-100"/>
			<point x="27" y="-77" type="curve"/>
			<point x="27" y="-32"/>
			<point x="58" y="0"/>
			<point x="102" y="0" type="curve"/>
			<point x="40" y="20" type="line"/>
			<point x="0" y="4"/>
			<point x="-30" y="-38"/>
			<point x="-30" y="-88" type="curve"/>
			<point x="-30" y="-141"/>
			<point x="7" y="-173"/>
		</contour>
	</outline>
</glyph>
<glyph name="tilde" format="2">
	<advance width="396"/>
	<unicode hex="02DC"/>
	<anchor x="291" y="704" name="top"/>
	<anchor x="252" y="517" name="_top"/>
	<outline>
		<contour>
			<point x="334" y="575" type="curve"/>
			<point x="334" y="575" type="line"/>
			<point x="386" y="575"/>
			<point x="423" y="615"/>
			<point x="449" y="691" type="curve"/>
			<point x="404" y="704" type="line"/>
			<point x="386" y="656"/>
			<point x="363" y="633"/>
			<point x="335" y="633" type="curve"/>
			<point x="296" y="633"/>
			<point x="281" y="699"/>
			<point x="219" y="699" type="curve"/>
			<point x="167" y="699"/>
			<point x="130" y="659"/>
			<point x="104" y="583" type="curve"/>
			<point x="149" y="570" type="line"/>
			<point x="166" y="618"/>
			<point x="190" y="641"/>
			<point x="218" y="641" type="curve"/>
			<point x="257" y="641"/>
			<point x="272" y="575"/>
		</contour>
	</outline>
</glyph>
<glyph name="dotaccentcomb" format="2">
	<advance width="0"/>
	<unicode hex="0307"/>
	<guideline x="172" y="661" angle="78.2"/>
	<anchor x="-33" y="517" name="_top"/>
	<outline>
		<contour>
			<point x="-8" y="611" type="curve"/>
			<point x="-8" y="611" type="line"/>
			<point x="19" y="611"/>
			<point x="46" y="637"/>
			<point x="46" y="665" type="curve"/>
			<point x="46" y="690"/>
			<point x="28" y="710"/>
			<point x="2" y="710" type="curve"/>
			<point x="-28" y="710"/>
			<point x="-53" y="683"/>
			<point x="-53" y="656" type="curve"/>
			<point x="-53" y="631"/>
			<point x="-35" y="611"/>
		</contour>
	</outline>
</glyph>
<glyph name="commaaccentcomb" format="2">
	<advance width="0"/>
	<unicode hex="0326"/>
	<anchor x="-144" y="0" name="_bottom"/>
	<anchor x="-39" y="517" name="_top"/>
	<outline>
		<contour>
			<point x="-242" y="-250" type="curve"/>
			<point x="-212" y="-277" type="line"/>
			<point x="-158" y="-222"/>
			<point x="-122" y="-186"/>
			<point x="-122" y="-134" type="curve"/>
			<point x="-122" y="-103"/>
			<point x="-137" y="-82"/>
			<point x="-166" y="-82" type="curve"/>
			<point x="-193" y="-82"/>
			<point x="-216" y="-107"/>
			<point x="-216" y="-132" type="curve"/>
			<point x="-216" y="-155"/>
			<point x="-200" y="-173"/>
			<point x="-178" y="-170" type="curve"/>
			<point x="-192" y="-197"/>
			<point x="-214" y="-224"/>
		</contour>
	</outline>
</glyph>
<glyph name="bullet" format="2">
	<advance width="353"/>
	<unicode hex="2022"/>
	<outline>
		<contour>
			<point x="166" y="178" type="curve"/>
			<point x="166" y="178" type="line"/>
			<point x="236" y="178"/>
			<point x="306" y="243"/>
			<point x="306" y="317" type="curve"/>
			<point x="306" y="373"/>
			<point x="264" y="417"/>
			<point x="205" y="417" type="curve"/>
			<point x="132" y="417"/>
			<point x="64" y="351"/>
			<point x="64" y="278" type="curve"/>
			<point x="64" y="221"/>
			<point x="106" y="178"/>
		</contour>
	</outline>
</glyph>
<glyph name="guilsinglleft" format="2">
	<advance width="334"/>
	<unicode hex="2039"/>
	<outline>
		<contour>
			<point x="46" y="251" type="line"/>
			<point x="166" y="52" type="line"/>
			<point x="243" y="69" type="line"/>
			<point x="135" y="252" type="line"/>
			<point x="320" y="432" type="line"/>
			<point x="246" y="448" type="line"/>
		</contour>
	</outline>
</glyph>
<glyph name="guilsinglright" format="2">
	<advance width="333"/>
	<unicode hex="203A"/>
	<outline>
		<contour>
			<point x="11" y="69" type="line"/>
			<point x="81" y="52" type="line"/>
			<point x="283" y="251" type="line"/>
			<point x="161" y="448" type="line"/>
			<point x="88" y="432" type="line"/>
			<point x="197" y="252" type="line"/>
		</contour>
	</outline>
</glyph>
<glyph name="euro" format="2">
	<advance width="820"/>
	<unicode hex="20AC"/>
	<anchor x="593" y="687" name="top"/>
	<anchor x="453" y="0" name="bottom"/>
	<outline>
		<contour>
			<point x="82" y="303" type="line"/>
			<point x="69" y="236" type="line"/>
			<point x="565" y="236" type="line"/>
			<point x="578" y="303" type="line"/>
		</contour>
		<contour>
			<point x="117" y="470" type="line"/>
			<point x="103" y="403" type="line"/>
			<point x="599" y="403" type="line"/>
			<point x="613" y="470" type="line"/>
		</contour>
		<contour>
			<point x="451" y="-12" type="curve"/>
			<point x="451" y="-12" type="line"/>
			<point x="534" y="-12"/>
			<point x="645" y="31"/>
			<point x="718" y="91" type="curve"/>
			<point x="673" y="149" type="line"/>
			<point x="614" y="97"/>
			<point x="528" y="60"/>
			<point x="465" y="60" type="curve"/>
			<point x="344" y="60"/>
			<point x="242" y="161"/>
			<point x="242" y="280" type="curve"/>
			<point x="242" y="468"/>
			<point x="398" y="627"/>
			<point x="584" y="627" type="curve"/>
			<point x="650" y="627"/>
			<point x="722" y="592"/>
			<point x="759" y="542" type="curve"/>
			<point x="820" y="592" type="line"/>
			<point x="770" y="655"/>
			<point x="679" y="699"/>
			<point x="599" y="699" type="curve"/>
			<point x="363" y="699"/>
			<point x="164" y="507"/>
			<point x="164" y="280" type="curve"/>
			<point x="164" y="121"/>
			<point x="295" y="-12"/>
		</contour>
	</outline>
</glyph>
<glyph name="trademark" format="2">
	<advance width="770"/>
	<unicode hex="2122"/>
	<outline>
		<contour>
			<point x="195" y="504" type="line"/>
			<point x="148" y="279" type="line"/>
			<point x="226" y="279" type="line"/>
			<point x="273" y="504" type="line"/>
			<point x="353" y="504" type="line"/>
			<point x="368" y="579" type="line"/>
			<point x="132" y="579" type="line"/>
			<point x="117" y="504" type="line"/>
		</contour>
		<contour>
			<point x="416" y="579" type="line"/>
			<point x="354" y="279" type="line"/>
			<point x="432" y="279" type="line"/>
			<point x="467" y="446" type="line"/>
			<point x="525" y="296" type="line"/>
			<point x="645" y="446" type="line"/>
			<point x="610" y="279" type="line"/>
			<point x="689" y="279" type="line"/>
			<point x="751" y="579" type="line"/>
			<point x="672" y="579" type="line"/>
			<point x="552" y="430" type="line"/>
			<point x="494" y="579" type="line"/>
		</contour>
	</outline>
</glyph>
<glyph name="_areas" format="2">
	<advance width="414"/>
	<outline>
		<contour>
			<point x="204" y="743" type="line"/>
			<point x="168" y="746" type="line"/>
			<point x="92" y="376" type="line"/>
			<point x="128" y="378" type="line"/>
			<point x="129" y="383" type="line"/>
			<point x="130" y="388" type="line"/>
			<point x="131" y="393" type="line"/>
			<point x="132" y="398" type="line"/>
			<point x="133" y="403" type="line"/>
			<point x="134" y="408" type="line"/>
			<point x="135" y="413" type="line"/>
			<point x="136" y="418" type="line"/>
			<point x="137" y="423" type="line"/>
			<point x="138" y="428" type="line"/>
			<point x="139" y="433" type="line"/>
			<point x="141" y="438" type="line"/>
			<point x="142" y="443" type="line"/>
			<point x="143" y="448" type="line"/>
			<point x="144" y="453" type="line"/>
			<point x="145" y="458" type="line"/>
			<point x="146" y="463" type="line"/>
			<point x="147" y="468" type="line"/>
			<point x="145" y="473" type="line"/>
			<point x="142" y="478" type="line"/>
			<point x="139" y="483" type="line"/>
			<point x="137" y="488" type="line"/>
			<point x="135" y="493" type="line"/>
			<point x="133" y="498" type="line"/>
			<point x="132" y="503" type="line"/>
			<point x="131" y="508" type="line"/>
			<point x="130" y="513" type="line"/>
			<point x="129" y="518" type="line"/>
			<point x="129" y="523" type="line"/>
			<point x="128" y="528" type="line"/>
			<point x="128" y="533" type="line"/>
			<point x="128" y="538" type="line"/>
			<point x="128" y="543" type="line"/>
			<point x="129" y="548" type="line"/>
			<point x="129" y="553" type="line"/>
			<point x="130" y="558" type="line"/>
			<point x="130" y="563" type="line"/>
			<point x="131" y="568" type="line"/>
			<point x="132" y="573" type="line"/>
			<point x="134" y="578" type="line"/>
			<point x="135" y="583" type="line"/>
			<point x="137" y="588" type="line"/>
			<point x="139" y="593" type="line"/>
			<point x="141" y="598" type="line"/>
			<point x="143" y="603" type="line"/>
			<point x="145" y="608" type="line"/>
			<point x="148" y="613" type="line"/>
			<point x="151" y="618" type="line"/>
			<point x="154" y="623" type="line"/>
			<point x="157" y="628" type="line"/>
			<point x="161" y="633" type="line"/>
			<point x="165" y="638" type="line"/>
			<point x="169" y="643" type="line"/>
			<point x="174" y="648" type="line"/>
			<point x="179" y="653" type="line"/>
			<point x="184" y="658" type="line"/>
			<point x="187" y="663" type="line"/>
			<point x="188" y="668" type="line"/>
			<point x="189" y="673" type="line"/>
			<point x="190" y="678" type="line"/>
			<point x="191" y="683" type="line"/>
			<point x="193" y="688" type="line"/>
			<point x="194" y="693" type="line"/>
			<point x="195" y="698" type="line"/>
			<point x="196" y="703" type="line"/>
			<point x="197" y="708" type="line"/>
			<point x="198" y="713" type="line"/>
			<point x="199" y="718" type="line"/>
			<point x="200" y="723" type="line"/>
			<point x="201" y="728" type="line"/>
			<point x="202" y="733" type="line"/>
			<point x="203" y="738" type="line"/>
		</contour>
		<contour>
			<point x="412" y="743" type="line"/>
			<point x="448" y="746" type="line"/>
			<point x="372" y="376" type="line"/>
			<point x="336" y="378" type="line"/>
			<point x="337" y="383" type="line"/>
			<point x="338" y="388" type="line"/>
			<point x="339" y="393" type="line"/>
			<point x="340" y="398" type="line"/>
			<point x="341" y="403" type="line"/>
			<point x="342" y="408" type="line"/>
			<point x="343" y="413" type="line"/>
			<point x="344" y="418" type="line"/>
			<point x="345" y="423" type="line"/>
			<point x="346" y="428" type="line"/>
			<point x="347" y="433" type="line"/>
			<point x="348" y="438" type="line"/>
			<point x="349" y="443" type="line"/>
			<point x="350" y="448" type="line"/>
			<point x="351" y="453" type="line"/>
			<point x="352" y="458" type="line"/>
			<point x="355" y="463" type="line"/>
			<point x="360" y="468" type="line"/>
			<point x="365" y="473" type="line"/>
			<point x="370" y="478" type="line"/>
			<point x="374" y="483" type="line"/>
			<point x="378" y="488" type="line"/>
			<point x="382" y="493" type="line"/>
			<point x="385" y="498" type="line"/>
			<point x="389" y="503" type="line"/>
			<point x="392" y="508" type="line"/>
			<point x="394" y="513" type="line"/>
			<point x="397" y="518" type="line"/>
			<point x="399" y="523" type="line"/>
			<point x="401" y="528" type="line"/>
			<point x="403" y="533" type="line"/>
			<point x="404" y="538" type="line"/>
			<point x="406" y="543" type="line"/>
			<point x="407" y="548" type="line"/>
			<point x="408" y="553" type="line"/>
			<point x="409" y="558" type="line"/>
			<point x="410" y="563" type="line"/>
			<point x="411" y="568" type="line"/>
			<point x="411" y="573" type="line"/>
			<point x="412" y="578" type="line"/>
			<point x="412" y="583" type="line"/>
			<point x="408" y="588" type="line"/>
			<point x="412" y="593" type="line"/>
			<point x="412" y="598" type="line"/>
			<point x="411" y="603" type="line"/>
			<point x="410" y="608" type="line"/>
			<point x="409" y="613" type="line"/>
			<point x="408" y="618" type="line"/>
			<point x="407" y="623" type="line"/>
			<point x="405" y="628" type="line"/>
			<point x="403" y="633" type="line"/>
			<point x="401" y="638" type="line"/>
			<point x="399" y="643" type="line"/>
			<point x="396" y="648" type="line"/>
			<point x="393" y="653" type="line"/>
			<point x="394" y="658" type="line"/>
			<point x="395" y="663" type="line"/>
			<point x="396" y="668" type="line"/>
			<point x="397" y="673" type="line"/>
			<point x="398" y="678" type="line"/>
			<point x="399" y="683" type="line"/>
			<point x="400" y="688" type="line"/>
			<point x="401" y="693" type="line"/>
			<point x="402" y="698" type="line"/>
			<point x="403" y="703" type="line"/>
			<point x="404" y="708" type="line"/>
			<point x="406" y="713" type="line"/>
			<point x="407" y="718" type="line"/>
			<point x="408" y="723" type="line"/>
			<point x="409" y="728" type="line"/>
			<point x="410" y="733" type="line"/>
			<point x="411" y="738" type="line"/>
		</contour>
	</outline>
</glyph>
<glyph name="a.alt" format="2">
	<advance width="527"/>
	<anchor x="326" y="517" name="top"/>
	<anchor x="424" y="0" name="bottom"/>
	<outline>
		<contour>
			<point x="349" y="0" type="curve"/>
			<point x="349" y="0" type="line"/>
			<point x="424" y="0" type="line"/>
			<point x="488" y="311"/>
			<point x="495" y="328"/>
			<point x="495" y="371" type="curve"/>
			<point x="495" y="465"/>
			<point x="439" y="529"/>
			<point x="319" y="529" type="curve"/>
			<point x="272" y="529"/>
			<point x="208" y="517"/>
			<point x="126" y="480" type="curve"/>
			<point x="149" y="417" type="line"/>
			<point x="200" y="441"/>
			<point x="257" y="465"/>
			<point x="312" y="465" type="curve"/>
			<point x="397" y="465"/>
			<point x="421" y="418"/>
			<point x="421" y="365" type="curve"/>
			<point x="421" y="333"/>
			<point x="418" y="331"/>
		</contour>
		<contour>
			<point x="170" y="-12" type="curve"/>
			<point x="170" y="-12" type="line"/>
			<point x="250" y="-12"/>
			<point x="353" y="32"/>
			<point x="392" y="120" type="curve"/>
			<point x="382" y="165" type="line"/>
			<point x="348" y="92"/>
			<point x="257" y="54"/>
			<point x="186" y="54" type="curve"/>
			<point x="124" y="54"/>
			<point x="81" y="81"/>
			<point x="81" y="130" type="curve"/>
			<point x="81" y="205"/>
			<point x="166" y="262"/>
			<point x="253" y="262" type="curve"/>
			<point x="321" y="262"/>
			<point x="382" y="251"/>
			<point x="433" y="231" type="curve"/>
			<point x="439" y="283" type="line"/>
			<point x="383" y="307"/>
			<point x="314" y="325"/>
			<point x="244" y="325" type="curve"/>
			<point x="123" y="325"/>
			<point x="8" y="243"/>
			<point x="8" y="121" type="curve"/>
			<point x="8" y="39"/>
			<point x="73" y="-12"/>
		</contour>
	</outline>
</glyph>
<glyph name="ascender" format="2">
	<advance width="250"/>
	<anchor x="161" y="253" name="loop_right"/>
	<anchor x="88" y="260" name="loop_left"/>
	<anchor x="176" y="326" name="shoulder"/>
	<anchor x="124" y="127" name="k_arms"/>
	<outline>
		<contour>
			<point x="179" y="699" type="line"/>
			<point x="34" y="0" type="line"/>
			<point x="109" y="0" type="line"/>
			<point x="254" y="699" type="line"/>
		</contour>
	</outline>
</glyph>
<glyph name="capital_V" format="2">
	<advance width="741"/>
	<outline>
		<contour>
			<point x="718" y="687" type="line"/>
			<point x="273" y="0" type="line"/>
			<point x="359" y="0" type="line"/>
			<point x="805" y="687" type="line"/>
		</contour>
		<contour>
			<point x="114" y="687" type="line"/>
			<point x="274" y="0" type="line"/>
			<point x="358" y="0" type="line"/>
			<point x="197" y="687" type="line"/>
		</contour>
	</outline>
</glyph>
<glyph name="k_arms" format="2">
	<advance width="419"/>
	<anchor x="-5" y="127" name="k_arms"/>
	<outline>
		<contour>
			<point x="120" y="229" type="line"/>
			<point x="251" y="0" type="line"/>
			<point x="342" y="0" type="line"/>
			<point x="182" y="280" type="line"/>
			<point x="465" y="517" type="line"/>
			<point x="367" y="517" type="line"/>
			<point x="13" y="221" type="line"/>
			<point x="-5" y="127" type="line"/>
		</contour>
	</outline>
</glyph>
<glyph name="lowercase_loop" format="2">
	<advance width="554"/>
	<anchor x="83" y="253" name="_loop_right"/>
	<outline>
		<contour>
			<point x="212" y="-12" type="curve"/>
			<point x="212" y="-12" type="line"/>
			<point x="378" y="-12"/>
			<point x="518" y="142"/>
			<point x="518" y="324" type="curve"/>
			<point x="518" y="435"/>
			<point x="429" y="529"/>
			<point x="324" y="529" type="curve"/>
			<point x="169" y="529"/>
			<point x="39" y="373"/>
			<point x="39" y="187" type="curve"/>
			<point x="39" y="79"/>
			<point x="118" y="-12"/>
		</contour>
		<contour>
			<point x="225" y="55" type="curve"/>
			<point x="225" y="55" type="line"/>
			<point x="145" y="55"/>
			<point x="78" y="121"/>
			<point x="78" y="199" type="curve"/>
			<point x="78" y="342"/>
			<point x="184" y="462"/>
			<point x="310" y="462" type="curve"/>
			<point x="381" y="462"/>
			<point x="440" y="396"/>
			<point x="440" y="318" type="curve"/>
			<point x="440" y="175"/>
			<point x="342" y="55"/>
		</contour>
	</outline>
</glyph>
<glyph name="lowercase_loop_reverse" format="2">
	<advance width="553"/>
	<anchor x="470" y="260" name="_loop_left"/>
	<outline>
		<contour>
			<point x="230" y="-12" type="curve"/>
			<point x="230" y="-12" type="line"/>
			<point x="385" y="-12"/>
			<point x="515" y="145"/>
			<point x="515" y="331" type="curve"/>
			<point x="515" y="438"/>
			<point x="436" y="529"/>
			<point x="342" y="529" type="curve"/>
			<point x="176" y="529"/>
			<point x="36" y="376"/>
			<point x="36" y="194" type="curve"/>
			<point x="36" y="82"/>
			<point x="125" y="-12"/>
		</contour>
		<contour>
			<point x="244" y="55" type="curve"/>
			<point x="244" y="55" type="line"/>
			<point x="173" y="55"/>
			<point x="114" y="121"/>
			<point x="114" y="199" type="curve"/>
			<point x="114" y="342"/>
			<point x="212" y="462"/>
			<point x="328" y="462" type="curve"/>
			<point x="408" y="462"/>
			<point x="476" y="396"/>
			<point x="476" y="318" type="curve"/>
			<point x="476" y="175"/>
			<point x="370" y="55"/>
		</contour>
	</outline>
</glyph>
<glyph name="lowercase_nh_shoulder" format="2">
	<advance width="472"/>
	<anchor x="50" y="326" name="_shoulder"/>
	<outline>
		<contour>
			<point x="270" y="0" type="curve"/>
			<point x="270" y="0" type="line"/>
			<point x="345" y="0" type="line"/>
			<point x="410" y="311"/>
			<point x="418" y="336"/>
			<point x="418" y="374" type="curve"/>
			<point x="418" y="466"/>
			<point x="356" y="529"/>
			<point x="256" y="529" type="curve"/>
			<point x="163" y="529"/>
			<point x="67" y="463"/>
			<point x="45" y="382" type="curve"/>
			<point x="50" y="326" type="line"/>
			<point x="65" y="398"/>
			<point x="153" y="462"/>
			<point x="243" y="462" type="curve"/>
			<point x="304" y="462"/>
			<point x="341" y="423"/>
			<point x="341" y="361" type="curve"/>
			<point x="341" y="330"/>
			<point x="334" y="308"/>
		</contour>
	</outline>
</glyph>
<glyph name="thorn_stem" format="2">
	<advance width="248"/>
	<anchor x="160" y="253" name="loop_right"/>
	<outline>
		<contour>
			<point x="178" y="699" type="line"/>
			<point x="-3" y="-172" type="line"/>
			<point x="72" y="-172" type="line"/>
			<point x="253" y="699" type="line"/>
		</contour>
	</outline>
</glyph>
